<mxfile host="app.diagrams.net" modified="2022-03-08T01:23:28.742Z" agent="5.0 (Windows NT 10.0; Win64; x64) AppleWebKit/537.36 (KHTML, like Gecko) Chrome/99.0.4844.51 Safari/537.36" etag="yM9dRCjrEzGmQg7ToAa-" version="16.6.4" type="github">
  <diagram id="R4Edw75YdpmVOok7pGXc" name="Page-1">
    <mxGraphModel dx="780" dy="1112" grid="1" gridSize="10" guides="1" tooltips="1" connect="1" arrows="1" fold="1" page="1" pageScale="1" pageWidth="850" pageHeight="1100" math="0" shadow="0">
      <root>
        <mxCell id="0" />
        <mxCell id="1" parent="0" />
        <mxCell id="gcMiCJSKb_V93HRmohkQ-3" value="" style="edgeStyle=orthogonalEdgeStyle;rounded=0;orthogonalLoop=1;jettySize=auto;html=1;" edge="1" parent="1" source="gcMiCJSKb_V93HRmohkQ-1" target="gcMiCJSKb_V93HRmohkQ-2">
          <mxGeometry relative="1" as="geometry" />
        </mxCell>
        <mxCell id="gcMiCJSKb_V93HRmohkQ-5" value="" style="edgeStyle=orthogonalEdgeStyle;rounded=0;orthogonalLoop=1;jettySize=auto;html=1;exitX=0.5;exitY=1;exitDx=0;exitDy=0;entryX=0.5;entryY=0;entryDx=0;entryDy=0;" edge="1" parent="1" source="gcMiCJSKb_V93HRmohkQ-4" target="gcMiCJSKb_V93HRmohkQ-1">
          <mxGeometry relative="1" as="geometry">
            <mxPoint x="150" y="170" as="targetPoint" />
          </mxGeometry>
        </mxCell>
        <mxCell id="gcMiCJSKb_V93HRmohkQ-1" value="Guess" style="rounded=0;whiteSpace=wrap;html=1;" vertex="1" parent="1">
          <mxGeometry x="60" y="210" width="120" height="60" as="geometry" />
        </mxCell>
        <mxCell id="gcMiCJSKb_V93HRmohkQ-7" value="" style="edgeStyle=orthogonalEdgeStyle;rounded=0;orthogonalLoop=1;jettySize=auto;html=1;" edge="1" parent="1" source="gcMiCJSKb_V93HRmohkQ-2" target="gcMiCJSKb_V93HRmohkQ-6">
          <mxGeometry relative="1" as="geometry" />
        </mxCell>
        <mxCell id="gcMiCJSKb_V93HRmohkQ-9" value="" style="edgeStyle=orthogonalEdgeStyle;rounded=0;orthogonalLoop=1;jettySize=auto;html=1;" edge="1" parent="1" source="gcMiCJSKb_V93HRmohkQ-2" target="gcMiCJSKb_V93HRmohkQ-8">
          <mxGeometry relative="1" as="geometry" />
        </mxCell>
        <mxCell id="gcMiCJSKb_V93HRmohkQ-2" value="letter in word?" style="rounded=0;whiteSpace=wrap;html=1;" vertex="1" parent="1">
          <mxGeometry x="260" y="210" width="120" height="60" as="geometry" />
        </mxCell>
        <mxCell id="gcMiCJSKb_V93HRmohkQ-4" value="Pick random word" style="whiteSpace=wrap;html=1;rounded=0;" vertex="1" parent="1">
          <mxGeometry x="60" y="70" width="120" height="60" as="geometry" />
        </mxCell>
        <mxCell id="gcMiCJSKb_V93HRmohkQ-11" value="" style="edgeStyle=orthogonalEdgeStyle;rounded=0;orthogonalLoop=1;jettySize=auto;html=1;" edge="1" parent="1" source="gcMiCJSKb_V93HRmohkQ-6" target="gcMiCJSKb_V93HRmohkQ-10">
          <mxGeometry relative="1" as="geometry" />
        </mxCell>
        <mxCell id="gcMiCJSKb_V93HRmohkQ-6" value="No" style="whiteSpace=wrap;html=1;rounded=0;" vertex="1" parent="1">
          <mxGeometry x="150" y="340" width="120" height="60" as="geometry" />
        </mxCell>
        <mxCell id="gcMiCJSKb_V93HRmohkQ-13" value="" style="edgeStyle=orthogonalEdgeStyle;rounded=0;orthogonalLoop=1;jettySize=auto;html=1;" edge="1" parent="1" source="gcMiCJSKb_V93HRmohkQ-8" target="gcMiCJSKb_V93HRmohkQ-12">
          <mxGeometry relative="1" as="geometry" />
        </mxCell>
        <mxCell id="gcMiCJSKb_V93HRmohkQ-8" value="Yes" style="whiteSpace=wrap;html=1;rounded=0;" vertex="1" parent="1">
          <mxGeometry x="460" y="210" width="120" height="60" as="geometry" />
        </mxCell>
        <mxCell id="gcMiCJSKb_V93HRmohkQ-24" value="" style="edgeStyle=orthogonalEdgeStyle;rounded=0;orthogonalLoop=1;jettySize=auto;html=1;" edge="1" parent="1" source="gcMiCJSKb_V93HRmohkQ-10" target="gcMiCJSKb_V93HRmohkQ-22">
          <mxGeometry relative="1" as="geometry" />
        </mxCell>
        <mxCell id="gcMiCJSKb_V93HRmohkQ-10" value="add hangman piece" style="whiteSpace=wrap;html=1;rounded=0;" vertex="1" parent="1">
          <mxGeometry x="150" y="490" width="120" height="60" as="geometry" />
        </mxCell>
        <mxCell id="gcMiCJSKb_V93HRmohkQ-15" value="" style="edgeStyle=orthogonalEdgeStyle;rounded=0;orthogonalLoop=1;jettySize=auto;html=1;" edge="1" parent="1" source="gcMiCJSKb_V93HRmohkQ-12" target="gcMiCJSKb_V93HRmohkQ-14">
          <mxGeometry relative="1" as="geometry" />
        </mxCell>
        <mxCell id="gcMiCJSKb_V93HRmohkQ-12" value="Add letter to word" style="whiteSpace=wrap;html=1;rounded=0;" vertex="1" parent="1">
          <mxGeometry x="380" y="350" width="120" height="60" as="geometry" />
        </mxCell>
        <mxCell id="gcMiCJSKb_V93HRmohkQ-17" value="" style="edgeStyle=orthogonalEdgeStyle;rounded=0;orthogonalLoop=1;jettySize=auto;html=1;" edge="1" parent="1" source="gcMiCJSKb_V93HRmohkQ-14" target="gcMiCJSKb_V93HRmohkQ-16">
          <mxGeometry relative="1" as="geometry" />
        </mxCell>
        <mxCell id="gcMiCJSKb_V93HRmohkQ-19" value="" style="edgeStyle=orthogonalEdgeStyle;rounded=0;orthogonalLoop=1;jettySize=auto;html=1;" edge="1" parent="1" source="gcMiCJSKb_V93HRmohkQ-14" target="gcMiCJSKb_V93HRmohkQ-18">
          <mxGeometry relative="1" as="geometry" />
        </mxCell>
        <mxCell id="gcMiCJSKb_V93HRmohkQ-14" value="Is word complete?" style="whiteSpace=wrap;html=1;rounded=0;" vertex="1" parent="1">
          <mxGeometry x="380" y="490" width="120" height="60" as="geometry" />
        </mxCell>
        <mxCell id="gcMiCJSKb_V93HRmohkQ-23" value="" style="edgeStyle=orthogonalEdgeStyle;rounded=0;orthogonalLoop=1;jettySize=auto;html=1;" edge="1" parent="1" source="gcMiCJSKb_V93HRmohkQ-16" target="gcMiCJSKb_V93HRmohkQ-22">
          <mxGeometry relative="1" as="geometry" />
        </mxCell>
        <mxCell id="gcMiCJSKb_V93HRmohkQ-16" value="No" style="whiteSpace=wrap;html=1;rounded=0;" vertex="1" parent="1">
          <mxGeometry x="380" y="620" width="120" height="60" as="geometry" />
        </mxCell>
        <mxCell id="gcMiCJSKb_V93HRmohkQ-21" value="" style="edgeStyle=orthogonalEdgeStyle;rounded=0;orthogonalLoop=1;jettySize=auto;html=1;" edge="1" parent="1" source="gcMiCJSKb_V93HRmohkQ-18" target="gcMiCJSKb_V93HRmohkQ-20">
          <mxGeometry relative="1" as="geometry" />
        </mxCell>
        <mxCell id="gcMiCJSKb_V93HRmohkQ-18" value="Yes" style="whiteSpace=wrap;html=1;rounded=0;" vertex="1" parent="1">
          <mxGeometry x="560" y="490" width="120" height="60" as="geometry" />
        </mxCell>
        <mxCell id="gcMiCJSKb_V93HRmohkQ-20" value="Win" style="whiteSpace=wrap;html=1;rounded=0;" vertex="1" parent="1">
          <mxGeometry x="560" y="620" width="120" height="60" as="geometry" />
        </mxCell>
        <mxCell id="gcMiCJSKb_V93HRmohkQ-22" value="Guess again" style="whiteSpace=wrap;html=1;rounded=0;" vertex="1" parent="1">
          <mxGeometry x="150" y="620" width="120" height="60" as="geometry" />
        </mxCell>
      </root>
    </mxGraphModel>
  </diagram>
</mxfile>
